Coordinates
version=1
nRows=13
nColumns=38
inDegrees=yes

Units are S.I. units (second, meters, Newtons, ...)
Angles are in degrees.

endheader
time	first_body_tilt	first_body_list	first_body_rotation	first_body_tx	first_body_ty	first_body_tz	hip_flexion_r	hip_adduction_r	hip_rotation_r	knee_angle_r	ankle_angle_r	subtalar_angle_r	mtp_angle_r	hip_flexion_l	hip_adduction_l	hip_rotation_l	knee_angle_l	ankle_angle_l	subtalar_angle_l	mtp_angle_l	lumbar_extension	lumbar_bending	lumbar_rotation	arm_flex_r	arm_add_r	arm_rot_r	elbow_flex_r	pro_sup_r	wrist_flex_r	wrist_dev_r	arm_flex_l	arm_add_l	arm_rot_l	elbow_flex_l	pro_sup_l	wrist_flex_l	wrist_dev_l
0.000000	-0.946596	0.543289	-4.069428	0.006266	0.018155	0.075954	-4.090463	6.815454	3.691794	-7.782252	16.721680	0.000000	0.000000	34.276870	-9.597579	-16.334067	-8.659238	3.534378	0.000000	0.000000	-0.862163	3.367814	11.051573	11.870922	-12.847568	10.774019	49.770175	107.561871	0.000000	0.000000	-4.500790	-7.890277	-24.458536	24.001489	114.170054	0.000000	0.000000	
0.005000	-1.180836	0.462338	-3.980975	0.006386	0.018901	0.076164	-4.225456	6.611879	3.816270	-8.151251	17.008862	0.000000	0.000000	34.397307	-9.470506	-16.210461	-9.394661	3.250218	0.000000	0.000000	-0.867528	3.168150	10.977982	11.654901	-12.723193	10.814186	49.523591	107.516137	0.000000	0.000000	-4.283699	-7.894366	-24.365379	23.857469	114.187257	0.000000	0.000000	
0.010000	-1.431190	0.379715	-3.897547	0.006533	0.019717	0.076376	-4.364786	6.407951	3.931134	-8.525575	17.284307	0.000000	0.000000	34.511716	-9.339988	-16.085934	-10.130160	2.977880	0.000000	0.000000	-0.877147	2.970383	10.904543	11.431187	-12.600287	10.849369	49.275809	107.471459	0.000000	0.000000	-4.071411	-7.898659	-24.254039	23.725593	114.207499	0.000000	0.000000	
0.015000	-1.706698	0.294288	-3.824987	0.006719	0.020619	0.076575	-4.511119	6.204306	4.027648	-8.905585	17.538447	0.000000	0.000000	34.614172	-9.202747	-15.959416	-10.858327	2.727044	0.000000	0.000000	-0.894026	2.776804	10.831227	11.196049	-12.480709	10.876218	49.027638	107.427264	0.000000	0.000000	-3.868063	-7.902779	-24.113111	23.614164	114.234169	0.000000	0.000000	
0.020000	-2.014944	0.205024	-3.767484	0.006951	0.021620	0.076750	-4.665249	6.000864	4.099354	-9.292172	17.763332	0.000000	0.000000	34.699539	-9.055715	-15.829158	-11.570640	2.501419	0.000000	0.000000	-0.919763	2.588804	10.758172	10.946682	-12.365862	10.892409	48.778878	107.382653	0.000000	0.000000	-3.676617	-7.906348	-23.934620	23.528933	114.269975	0.000000	0.000000	
0.025000	-2.361746	0.111075	-3.727109	0.007238	0.022730	0.076898	-4.825778	5.796697	4.142825	-9.686946	17.953089	0.000000	0.000000	34.763832	-8.896299	-15.692816	-12.257865	2.297415	0.000000	0.000000	-0.954238	2.406654	10.685799	10.681329	-12.256550	10.896862	48.528124	107.336448	0.000000	0.000000	-3.498614	-7.909032	-23.714760	23.472635	114.316696	0.000000	0.000000	
0.030000	-2.751039	0.011890	-3.703689	0.007584	0.023958	0.077019	-4.989237	5.590139	4.157941	-10.092203	18.104084	0.000000	0.000000	34.804501	-8.722741	-15.547899	-12.910920	2.104484	0.000000	0.000000	-0.995625	2.229521	10.614899	10.399270	-12.152913	10.889708	48.272878	107.287378	0.000000	0.000000	-3.334239	-7.910617	-23.453857	23.445112	114.375033	0.000000	0.000000	
0.035000	-3.184961	-0.092695	-3.695042	0.007991	0.025306	0.077119	-5.150631	5.379104	4.147677	-10.510726	18.214785	0.000000	0.000000	34.820610	-8.534498	-15.392469	-13.522128	1.907035	0.000000	0.000000	-1.040727	2.055719	10.546679	10.100668	-12.054456	10.872013	48.009914	107.234398	0.000000	0.000000	-3.182647	-7.911104	-23.155521	23.443977	114.444545	0.000000	0.000000	
0.040000	-3.664141	-0.202395	-3.697478	0.008462	0.026777	0.077207	-5.304283	5.161526	4.117454	-10.945507	18.285392	0.000000	0.000000	34.812901	-8.332550	-15.225908	-14.086655	1.687512	0.000000	0.000000	-1.085572	1.883106	10.482730	9.786331	-11.960156	10.845298	47.735786	107.177091	0.000000	0.000000	-3.042478	-7.910824	-22.825087	23.465639	114.523682	0.000000	0.000000	
0.045000	-4.188111	-0.316488	-3.706492	0.008996	0.028371	0.077294	-5.444760	4.935817	4.074181	-11.399473	18.317348	0.000000	0.000000	34.783726	-8.119531	-15.049515	-14.603827	1.429976	0.000000	0.000000	-1.126131	1.709553	10.424917	9.457419	-11.868618	10.810974	47.447354	107.116061	0.000000	0.000000	-2.912400	-7.910542	-22.467708	23.506456	114.609884	0.000000	0.000000	
0.050000	-4.755764	-0.433887	-3.717489	0.009590	0.030086	0.077392	-5.567715	4.701230	4.025153	-11.875286	18.312832	0.000000	0.000000	34.736840	-7.899632	-14.866762	-15.077999	1.123439	0.000000	0.000000	-1.159039	1.533381	10.375186	9.115187	-11.778271	10.769833	47.142210	107.053223	0.000000	0.000000	-2.791566	-7.911521	-22.086547	23.563719	114.699749	0.000000	0.000000	
0.055000	-5.365778	-0.553283	-3.726432	0.010245	0.031922	0.077509	-5.670438	4.458081	3.977006	-12.375272	18.274318	0.000000	0.000000	34.677054	-7.678234	-14.683071	-15.518666	0.764296	0.000000	0.000000	-1.182163	1.353698	10.335310	8.760792	-11.687576	10.721726	46.818943	106.991887	0.000000	0.000000	-2.679839	-7.915474	-21.681603	23.636230	114.789237	0.000000	0.000000	
0.060000	-6.016963	-0.673303	-3.730302	0.010957	0.033881	0.077651	-5.752037	4.207761	3.934859	-12.901455	18.204231	0.000000	0.000000	34.609749	-7.461328	-14.505130	-15.939688	0.357397	0.000000	0.000000	-1.194905	1.170580	10.306604	8.395187	-11.595228	10.665532	46.477216	106.936587	0.000000	0.000000	-2.577742	-7.924398	-21.249595	23.724327	114.873907	0.000000	0.000000	
